<svg width="192" height="192" viewBox="0 0 192 192" fill="none" xmlns="http://www.w3.org/2000/svg">
<rect width="192" height="192" fill="white"/>
<rect x="21.7224" y="2" width="168.278" height="84.5539" rx="8" fill="#494949" stroke="black" stroke-width="4"/>
<rect x="12" y="40" width="168.278" height="84.5539" rx="8" fill="#494949" stroke="black" stroke-width="4"/>
<path d="M10 81.0864H160.668C165.086 81.0864 168.668 84.6681 168.668 89.0864V157.64C168.668 162.059 165.086 165.64 160.668 165.64H10C5.58172 165.64 2 162.059 2 157.64V89.0864C2 84.6681 5.58172 81.0864 10 81.0864Z" fill="#494949" stroke="black" stroke-width="4"/>
<path d="M81.3565 145.6C80.1965 145.6 79.0965 145.54 78.0565 145.42C77.0565 145.3 76.1365 145.16 75.2965 145L67.4965 141.4L71.0965 132.28L82.1965 136.12C84.6765 136.12 86.4565 135.38 87.5365 133.9C88.6165 132.38 89.1565 130.1 89.1565 127.06V112.12L87.8365 106.12L88.4965 102.52H99.8365L99.8965 128.98C99.8965 134.34 98.2965 138.46 95.0965 141.34C91.8965 144.18 87.3165 145.6 81.3565 145.6Z" fill="white"/>
</svg>
